<svg xmlns="http://www.w3.org/2000/svg" width="24" height="24" viewBox="0 0 24 24">
  <rect width="24" height="24" rx="6" fill="#ef4444"/>
  <g transform="translate(12, 12) scale(0.65) translate(-12, -12)">
    <path d="M7 17a1.5 1.5 0 0 1-1.5-1.5V5.5A1.5 1.5 0 0 1 7 4h6.5a1.5 1.5 0 0 1 1.06.44l3 3a1.5 1.5 0 0 1 .44 1.06v7a1.5 1.5 0 0 1-1.5 1.5z" fill="none" stroke="white" stroke-width="1.2" stroke-linecap="round" stroke-linejoin="round"/>
    <path d="M13.5 4v3.5a1 1 0 0 0 1 1H18" fill="none" stroke="white" stroke-width="1.2" stroke-linecap="round" stroke-linejoin="round"/>
  </g>
</svg>